<?xml version="1.0" encoding="UTF-8" standalone="no"?>
<svg
   version="1.0"
   width="48.000000pt"
   height="48.000000pt"
   viewBox="0 0 48.000000 48.000000"
   preserveAspectRatio="xMidYMid meet"
   id="svg146"
   sodipodi:docname="favicon.svg"
   inkscape:version="1.2.2 (732a01da63, 2022-12-09)"
   xmlns:inkscape="http://www.inkscape.org/namespaces/inkscape"
   xmlns:sodipodi="http://sodipodi.sourceforge.net/DTD/sodipodi-0.dtd"
   xmlns="http://www.w3.org/2000/svg"
   xmlns:svg="http://www.w3.org/2000/svg">
  <defs
     id="defs150" />
  <sodipodi:namedview
     id="namedview148"
     pagecolor="#ffffff"
     bordercolor="#666666"
     borderopacity="1.0"
     inkscape:showpageshadow="2"
     inkscape:pageopacity="0.0"
     inkscape:pagecheckerboard="true"
     inkscape:deskcolor="#d1d1d1"
     inkscape:document-units="pt"
     showgrid="false"
     inkscape:zoom="5.140625"
     inkscape:cx="15.367781"
     inkscape:cy="46.589666"
     inkscape:window-width="1278"
     inkscape:window-height="1008"
     inkscape:window-x="-7"
     inkscape:window-y="0"
     inkscape:window-maximized="0"
     inkscape:current-layer="g144" />
  <g
     transform="translate(0.000000,48.000000) scale(0.100000,-0.100000)"
     fill="#000000"
     stroke="none"
     id="g144">
    <rect
       style="opacity:1;fill:#ffffff;fill-opacity:1;stroke-width:19.993;paint-order:stroke markers fill"
       id="rect2521"
       width="360"
       height="360"
       x="0"
       y="-480"
       transform="scale(1,-1)"
       inkscape:export-filename="icons\icon512.png"
       inkscape:export-xdpi="1024"
       inkscape:export-ydpi="1024" />
    <path
       d="M 0,300 V 120 H 180 360 V 300 480 H 180 0 Z m 160.5,137.25 c 1.5,-7.5 6,-32.25 8.25,-54.75 7.5,-60 15.75,-68.25 21.75,-21.75 C 201.75,453 200.25,450 237,450 h 33 l -1.5,-147.75 -2.25,-148.5 h -22.5 c -22.5,0 -22.5,0 -26.25,52.5 l -3.75,52.5 -6.75,-46.5 C 201,165 186,141 171.75,155.25 168,159 160.5,183.75 155.25,210.75 l -9,48 -3.75,-52.5 -3.75,-52.5 h -22.5 -22.5 L 91.5,302.25 90,450 h 33 c 25.5,0 34.5,-3 37.5,-12.75 z"
       id="path142"
       style="opacity:1;fill:#f00c18;fill-opacity:1;stroke-width:0.75" />
  </g>
</svg>
